<svg width="1024" height="1024" viewBox="0 0 1024 1024" fill="none" xmlns="http://www.w3.org/2000/svg">
  <rect width="1024" height="1024" rx="230" fill="url(#paint0_linear)"/>
  <rect x="174" y="214" width="676" height="596" rx="152" fill="white" fill-opacity="0.86"/>
  <path d="M326 610L438 486C463 458 507 459 531 489L574 543L610 501C635 472 681 476 700 510L764 624C782 655 759 694 723 694H306C269 694 248 652 273 625L326 610Z" fill="#0071E3"/>
  <circle cx="672" cy="372" r="64" fill="#34C759"/>
  <path d="M322 315H520" stroke="#0071E3" stroke-width="52" stroke-linecap="round"/>
  <path d="M322 410H450" stroke="#0071E3" stroke-width="52" stroke-linecap="round" opacity="0.55"/>
  <defs>
    <linearGradient id="paint0_linear" x1="164" y1="80" x2="860" y2="944" gradientUnits="userSpaceOnUse">
      <stop stop-color="#EAF4FF"/>
      <stop offset="0.48" stop-color="#F5F5F7"/>
      <stop offset="1" stop-color="#BBD9FF"/>
    </linearGradient>
  </defs>
</svg>